<svg xmlns="http://www.w3.org/2000/svg" viewBox="0 0 512 512" width="100%" height="100%">
  <!-- Left device (white/silver back) -->
  <rect x="28" y="0" width="180" height="512" rx="56" fill="#ECECEC"/>
  <!-- Rear Camera Lens -->
  <circle cx="72" cy="44" r="26" fill="#4B4C4E"/>

  <!-- Right device (dark charcoal front body) -->
  <rect x="144" y="0" width="340" height="512" rx="56" fill="#414244"/>

  <!-- Front Top Camera -->
  <circle cx="314" cy="22" r="10" fill="#58595C"/>

  <!-- Front Bottom Home Button -->
  <circle cx="314" cy="482" r="24" fill="#353638"/>
  <circle cx="314" cy="482" r="18" fill="#47484B"/>

  <!-- Screen -->
  <rect x="170" y="42" width="288" height="412" rx="6" fill="#A1D8F7"/>
  <!-- Status Bar -->
  <rect x="170" y="42" width="288" height="30" rx="4" fill="#52ADEE"/>

  <!-- App Icons Grid (4 columns x 5 rows) -->
  <!-- Row 1 -->
  <rect x="194" y="112" width="36" height="36" rx="8" fill="#8AC220"/>
  <rect x="256" y="112" width="36" height="36" rx="8" fill="#EE4A40"/>
  <rect x="318" y="112" width="36" height="36" rx="8" fill="#FFB700"/>
  <rect x="380" y="112" width="36" height="36" rx="8" fill="#E3E8EC"/>

  <!-- Row 2 -->
  <rect x="194" y="170" width="36" height="36" rx="8" fill="#E2A668"/>
  <rect x="256" y="170" width="36" height="36" rx="8" fill="#5DB1F0"/>
  <rect x="318" y="170" width="36" height="36" rx="8" fill="#F8D8AD"/>
  <rect x="380" y="170" width="36" height="36" rx="8" fill="#6CB7F0"/>

  <!-- Row 3 -->
  <rect x="194" y="228" width="36" height="36" rx="8" fill="#FFFFFF"/>
  <rect x="256" y="228" width="36" height="36" rx="8" fill="#FFB700"/>
  <rect x="318" y="228" width="36" height="36" rx="8" fill="#6CB7F0"/>
  <rect x="380" y="228" width="36" height="36" rx="8" fill="#E3E8EC"/>

  <!-- Row 4 -->
  <rect x="194" y="286" width="36" height="36" rx="8" fill="#8A8E91"/>
  <rect x="256" y="286" width="36" height="36" rx="8" fill="#EE4A40"/>
  <rect x="318" y="286" width="36" height="36" rx="8" fill="#6CB7F0"/>
  <rect x="380" y="286" width="36" height="36" rx="8" fill="#FFB700"/>

  <!-- Row 5 (Dock) -->
  <rect x="194" y="388" width="36" height="36" rx="8" fill="#8AC220"/>
  <rect x="256" y="388" width="36" height="36" rx="8" fill="#5DB1F0"/>
  <rect x="318" y="388" width="36" height="36" rx="8" fill="#6CB7F0"/>
  <rect x="380" y="388" width="36" height="36" rx="8" fill="#FFB700"/>
</svg>
